<svg xmlns="http://www.w3.org/2000/svg" width="800" height="260" viewBox="0 0 800 260">
  <defs>
    <style>.mono { font-family: 'Courier New', Courier, monospace; }</style>
  </defs>

  <!-- bg -->
  <rect width="800" height="260" fill="#0f0d0b" stroke="#3d3228" stroke-width="1"/>
  <!-- title bar -->
  <rect width="800" height="36" fill="#241e18"/>
  <line x1="0" y1="36" x2="800" y2="36" stroke="#3d3228" stroke-width="1"/>
  <!-- pixel corner accent -->
  <polygon points="0,0 14,0 0,14" fill="#e8834a" opacity="0.6"/>
  <!-- traffic lights -->
  <circle cx="24" cy="18" r="6" fill="#ff5f57"/>
  <circle cx="42" cy="18" r="6" fill="#febc2e"/>
  <circle cx="60" cy="18" r="6" fill="#28c840"/>
  <!-- title -->
  <text x="400" y="23" text-anchor="middle" class="mono" font-size="11" fill="#8a7a6a" letter-spacing="1">bash — bitan_banerjee.sh</text>

  <!-- pixel avatar 9x9, 10px cells, 1px gap, starts at x=24 y=52 -->
  <!-- row 0: 0 0 1 1 1 1 1 0 0 -->
  <rect x="24"  y="52" width="9" height="9" fill="#241e18"/>
  <rect x="34"  y="52" width="9" height="9" fill="#241e18"/>
  <rect x="44"  y="52" width="9" height="9" fill="#e8834a"/>
  <rect x="54"  y="52" width="9" height="9" fill="#e8834a"/>
  <rect x="64"  y="52" width="9" height="9" fill="#e8834a"/>
  <rect x="74"  y="52" width="9" height="9" fill="#e8834a"/>
  <rect x="84"  y="52" width="9" height="9" fill="#e8834a"/>
  <rect x="94"  y="52" width="9" height="9" fill="#241e18"/>
  <rect x="104" y="52" width="9" height="9" fill="#241e18"/>
  <!-- row 1: 0 1 1 0 0 0 1 1 0 -->
  <rect x="24"  y="62" width="9" height="9" fill="#241e18"/>
  <rect x="34"  y="62" width="9" height="9" fill="#e8834a"/>
  <rect x="44"  y="62" width="9" height="9" fill="#e8834a"/>
  <rect x="54"  y="62" width="9" height="9" fill="#241e18"/>
  <rect x="64"  y="62" width="9" height="9" fill="#241e18"/>
  <rect x="74"  y="62" width="9" height="9" fill="#241e18"/>
  <rect x="84"  y="62" width="9" height="9" fill="#e8834a"/>
  <rect x="94"  y="62" width="9" height="9" fill="#e8834a"/>
  <rect x="104" y="62" width="9" height="9" fill="#241e18"/>
  <!-- row 2: 1 1 0 1 0 1 0 1 1 -->
  <rect x="24"  y="72" width="9" height="9" fill="#e8834a"/>
  <rect x="34"  y="72" width="9" height="9" fill="#e8834a"/>
  <rect x="44"  y="72" width="9" height="9" fill="#241e18"/>
  <rect x="54"  y="72" width="9" height="9" fill="#e8834a"/>
  <rect x="64"  y="72" width="9" height="9" fill="#241e18"/>
  <rect x="74"  y="72" width="9" height="9" fill="#e8834a"/>
  <rect x="84"  y="72" width="9" height="9" fill="#241e18"/>
  <rect x="94"  y="72" width="9" height="9" fill="#e8834a"/>
  <rect x="104" y="72" width="9" height="9" fill="#e8834a"/>
  <!-- row 3: 1 1 0 0 0 0 0 1 1 -->
  <rect x="24"  y="82" width="9" height="9" fill="#e8834a"/>
  <rect x="34"  y="82" width="9" height="9" fill="#e8834a"/>
  <rect x="44"  y="82" width="9" height="9" fill="#241e18"/>
  <rect x="54"  y="82" width="9" height="9" fill="#241e18"/>
  <rect x="64"  y="82" width="9" height="9" fill="#241e18"/>
  <rect x="74"  y="82" width="9" height="9" fill="#241e18"/>
  <rect x="84"  y="82" width="9" height="9" fill="#241e18"/>
  <rect x="94"  y="82" width="9" height="9" fill="#e8834a"/>
  <rect x="104" y="82" width="9" height="9" fill="#e8834a"/>
  <!-- row 4: 1 1 0 1 1 1 0 1 1 -->
  <rect x="24"  y="92" width="9" height="9" fill="#e8834a"/>
  <rect x="34"  y="92" width="9" height="9" fill="#e8834a"/>
  <rect x="44"  y="92" width="9" height="9" fill="#241e18"/>
  <rect x="54"  y="92" width="9" height="9" fill="#e8834a"/>
  <rect x="64"  y="92" width="9" height="9" fill="#e8834a"/>
  <rect x="74"  y="92" width="9" height="9" fill="#e8834a"/>
  <rect x="84"  y="92" width="9" height="9" fill="#241e18"/>
  <rect x="94"  y="92" width="9" height="9" fill="#e8834a"/>
  <rect x="104" y="92" width="9" height="9" fill="#e8834a"/>
  <!-- row 5: 0 1 1 0 0 0 1 1 0 -->
  <rect x="24"  y="102" width="9" height="9" fill="#241e18"/>
  <rect x="34"  y="102" width="9" height="9" fill="#e8834a"/>
  <rect x="44"  y="102" width="9" height="9" fill="#e8834a"/>
  <rect x="54"  y="102" width="9" height="9" fill="#241e18"/>
  <rect x="64"  y="102" width="9" height="9" fill="#241e18"/>
  <rect x="74"  y="102" width="9" height="9" fill="#241e18"/>
  <rect x="84"  y="102" width="9" height="9" fill="#e8834a"/>
  <rect x="94"  y="102" width="9" height="9" fill="#e8834a"/>
  <rect x="104" y="102" width="9" height="9" fill="#241e18"/>
  <!-- row 6: 0 0 1 1 0 1 1 0 0 -->
  <rect x="24"  y="112" width="9" height="9" fill="#241e18"/>
  <rect x="34"  y="112" width="9" height="9" fill="#241e18"/>
  <rect x="44"  y="112" width="9" height="9" fill="#e8834a"/>
  <rect x="54"  y="112" width="9" height="9" fill="#e8834a"/>
  <rect x="64"  y="112" width="9" height="9" fill="#241e18"/>
  <rect x="74"  y="112" width="9" height="9" fill="#e8834a"/>
  <rect x="84"  y="112" width="9" height="9" fill="#e8834a"/>
  <rect x="94"  y="112" width="9" height="9" fill="#241e18"/>
  <rect x="104" y="112" width="9" height="9" fill="#241e18"/>
  <!-- row 7: 0 0 0 1 1 1 0 0 0 -->
  <rect x="24"  y="122" width="9" height="9" fill="#241e18"/>
  <rect x="34"  y="122" width="9" height="9" fill="#241e18"/>
  <rect x="44"  y="122" width="9" height="9" fill="#241e18"/>
  <rect x="54"  y="122" width="9" height="9" fill="#e8834a"/>
  <rect x="64"  y="122" width="9" height="9" fill="#e8834a"/>
  <rect x="74"  y="122" width="9" height="9" fill="#e8834a"/>
  <rect x="84"  y="122" width="9" height="9" fill="#241e18"/>
  <rect x="94"  y="122" width="9" height="9" fill="#241e18"/>
  <rect x="104" y="122" width="9" height="9" fill="#241e18"/>

  <!-- info box: drawn with SVG lines, not unicode box chars -->
  <!-- top border -->
  <line x1="134" y1="56" x2="680" y2="56" stroke="#3d3228" stroke-width="1"/>
  <!-- bottom border -->
  <line x1="134" y1="148" x2="680" y2="148" stroke="#3d3228" stroke-width="1"/>
  <!-- left edge tick -->
  <line x1="134" y1="56" x2="134" y2="60" stroke="#3d3228" stroke-width="1"/>
  <line x1="134" y1="144" x2="134" y2="148" stroke="#3d3228" stroke-width="1"/>
  <!-- right edge tick -->
  <line x1="680" y1="56" x2="680" y2="60" stroke="#3d3228" stroke-width="1"/>
  <line x1="680" y1="144" x2="680" y2="148" stroke="#3d3228" stroke-width="1"/>

  <!-- name line -->
  <text x="148" y="76" class="mono" font-size="14" fill="#e8834a" font-weight="bold">Bitan Banerjee</text>
  <text x="290" y="76" class="mono" font-size="13" fill="#8a7a6a">  CLI </text>
  <text x="338" y="76" class="mono" font-size="13" fill="#c8a96e">v3.8.0</text>

  <!-- key-value rows -->
  <text x="148" y="97"  class="mono" font-size="12" fill="#8a7a6a">auth   :</text>
  <text x="234" y="97"  class="mono" font-size="12" fill="#c8a96e">  banerjeebitan@outlook.com</text>

  <text x="148" y="114" class="mono" font-size="12" fill="#8a7a6a">role   :</text>
  <text x="234" y="114" class="mono" font-size="12" fill="#c8a96e">  Data Engineer</text>

  <text x="148" y="131" class="mono" font-size="12" fill="#8a7a6a">exp    :</text>
  <text x="234" y="131" class="mono" font-size="12" fill="#c8a96e">  have work experience in finance and healthcare industries.</text>

  <!-- blinking cursor -->
  <rect x="148" y="138" width="7" height="12" fill="#e8834a">
    <animate attributeName="opacity" values="1;0;1" dur="1.2s" repeatCount="indefinite"/>
  </rect>

  <!-- stat boxes -->
  <rect x="24"  y="172" width="234" height="66" fill="#1a1612" stroke="#3d3228" stroke-width="1"/>
  <rect x="283" y="172" width="234" height="66" fill="#1a1612" stroke="#3d3228" stroke-width="1"/>
  <rect x="542" y="172" width="234" height="66" fill="#1a1612" stroke="#3d3228" stroke-width="1"/>

  <text x="141" y="200" text-anchor="middle" class="mono" font-size="22" fill="#e8834a" font-weight="bold">3.8</text>
  <text x="141" y="222" text-anchor="middle" class="mono" font-size="10" fill="#8a7a6a" letter-spacing="2">YRS EXPERIENCE</text>

  <text x="400" y="200" text-anchor="middle" class="mono" font-size="22" fill="#e8834a" font-weight="bold">500+</text>
  <text x="400" y="222" text-anchor="middle" class="mono" font-size="10" fill="#8a7a6a" letter-spacing="2">TABLES IN SCOPE</text>

  <text x="659" y="200" text-anchor="middle" class="mono" font-size="22" fill="#e8834a" font-weight="bold">35%</text>
  <text x="659" y="222" text-anchor="middle" class="mono" font-size="10" fill="#8a7a6a" letter-spacing="2">YOY BI GROWTH</text>
</svg>
